<?xml version="1.0" encoding="UTF-8"?><svg id="Layer_2" xmlns="http://www.w3.org/2000/svg" xmlns:xlink="http://www.w3.org/1999/xlink" viewBox="0 0 1224 1224"><defs><style>.cls-1{fill:url(#linear-gradient);}.cls-2{fill:url(#linear-gradient-8);}.cls-3{fill:url(#linear-gradient-9);}.cls-4{fill:url(#linear-gradient-3);}.cls-5{fill:url(#linear-gradient-4);}.cls-6{fill:url(#linear-gradient-2);}.cls-7{fill:url(#linear-gradient-6);}.cls-8{fill:url(#linear-gradient-7);}.cls-9{fill:url(#linear-gradient-5);}.cls-10{fill:url(#linear-gradient-14);}.cls-11{fill:url(#linear-gradient-18);}.cls-12{fill:url(#linear-gradient-22);}.cls-13{fill:url(#linear-gradient-20);}.cls-14{fill:url(#linear-gradient-21);}.cls-15{fill:url(#linear-gradient-23);}.cls-16{fill:url(#linear-gradient-15);}.cls-17{fill:url(#linear-gradient-19);}.cls-18{fill:url(#linear-gradient-16);}.cls-19{fill:url(#linear-gradient-17);}.cls-20{fill:url(#linear-gradient-13);}.cls-21{fill:url(#linear-gradient-12);}.cls-22{fill:url(#linear-gradient-10);}.cls-23{fill:url(#linear-gradient-11);}.cls-24{fill:url(#linear-gradient-27);}.cls-25{fill:url(#linear-gradient-24);}.cls-26{fill:url(#linear-gradient-26);}.cls-27{fill:url(#linear-gradient-25);}.cls-28{fill:url(#linear-gradient-28);}.cls-29{fill:url(#linear-gradient-29);}.cls-30{fill:url(#linear-gradient-30);}.cls-31{fill:url(#linear-gradient-31);}</style><linearGradient id="linear-gradient" x1="1228.93" y1="2960.49" x2="2452.85" y2="2960.49" gradientTransform="translate(-1032.89 -2461.75) rotate(3.72)" gradientUnits="userSpaceOnUse"><stop offset="0" stop-color="#001b35"/><stop offset=".3" stop-color="#005567"/><stop offset=".8" stop-color="#00f2d6"/><stop offset="1" stop-color="#00ffb5"/></linearGradient><linearGradient id="linear-gradient-2" x1="1254.68" y1="2483.95" x2="2454.37" y2="2483.95" gradientTransform="translate(-1082 -1992.11) rotate(3.72)" xlink:href="#linear-gradient"/><linearGradient id="linear-gradient-3" x1="1280.43" y1="2007.4" x2="2455.89" y2="2007.4" gradientTransform="translate(-1131.12 -1522.47) rotate(3.72)" xlink:href="#linear-gradient"/><linearGradient id="linear-gradient-4" x1="1306.18" y1="1530.86" x2="2457.41" y2="1530.86" gradientTransform="translate(-1180.24 -1052.84) rotate(3.72)" xlink:href="#linear-gradient"/><linearGradient id="linear-gradient-5" x1="1331.93" y1="1054.31" x2="2458.93" y2="1054.31" gradientTransform="translate(-1229.35 -583.2) rotate(3.72)" xlink:href="#linear-gradient"/><linearGradient id="linear-gradient-6" x1="1357.68" y1="577.77" x2="2460.45" y2="577.77" gradientTransform="translate(-1278.47 -113.56) rotate(3.72)" xlink:href="#linear-gradient"/><linearGradient id="linear-gradient-7" x1="1383.43" y1="101.23" x2="2461.97" y2="101.23" gradientTransform="translate(-1327.59 356.07) rotate(3.72)" xlink:href="#linear-gradient"/><linearGradient id="linear-gradient-8" x1="1409.18" y1="-375.32" x2="2463.49" y2="-375.32" gradientTransform="translate(-1376.7 825.71) rotate(3.72)" xlink:href="#linear-gradient"/><linearGradient id="linear-gradient-9" x1="1434.93" y1="-851.86" x2="2465.01" y2="-851.86" gradientTransform="translate(-1425.82 1295.35) rotate(3.72)" xlink:href="#linear-gradient"/><linearGradient id="linear-gradient-10" x1="1460.69" y1="-1328.41" x2="2466.53" y2="-1328.41" gradientTransform="translate(-1474.94 1764.99) rotate(3.72)" xlink:href="#linear-gradient"/><linearGradient id="linear-gradient-11" x1="1486.44" y1="-1804.95" x2="2468.05" y2="-1804.95" gradientTransform="translate(-1524.05 2234.62) rotate(3.72)" xlink:href="#linear-gradient"/><linearGradient id="linear-gradient-12" x1="1512.19" y1="-2281.5" x2="2469.57" y2="-2281.5" gradientTransform="translate(-1573.17 2704.26) rotate(3.72)" xlink:href="#linear-gradient"/><linearGradient id="linear-gradient-13" x1="1537.94" y1="-2758.04" x2="2471.09" y2="-2758.04" gradientTransform="translate(-1622.29 3173.9) rotate(3.72)" xlink:href="#linear-gradient"/><linearGradient id="linear-gradient-14" x1="1563.69" y1="-3234.58" x2="2472.61" y2="-3234.58" gradientTransform="translate(-1671.4 3643.53) rotate(3.72)" xlink:href="#linear-gradient"/><linearGradient id="linear-gradient-15" x1="734.15" y1="82.7" x2="1618.9" y2="82.7" gradientTransform="translate(-628.67 459)" xlink:href="#linear-gradient"/><linearGradient id="linear-gradient-16" x1="992.78" y1="-313.5" x2="1351.1" y2="468.86" gradientTransform="translate(-628.67 459)" xlink:href="#linear-gradient"/><linearGradient id="linear-gradient-17" x1="-11183.79" y1="14878.79" x2="-10340.6" y2="14878.79" gradientTransform="translate(-17612.54 3295.59) rotate(-134.51)" gradientUnits="userSpaceOnUse"><stop offset="0" stop-color="#001b36"/><stop offset=".3" stop-color="#005567"/><stop offset=".8" stop-color="#00f2d6"/><stop offset="1" stop-color="#00ffb5"/></linearGradient><linearGradient id="linear-gradient-18" x1="759.05" y1="86.64" x2="1585.02" y2="86.64" gradientTransform="translate(-628.67 459)" xlink:href="#linear-gradient-17"/><linearGradient id="linear-gradient-19" x1="767.72" y1="91.11" x2="1576.44" y2="91.11" gradientTransform="translate(-628.67 459)" gradientUnits="userSpaceOnUse"><stop offset="0" stop-color="#001b37"/><stop offset=".3" stop-color="#005567"/><stop offset=".8" stop-color="#00f2d6"/><stop offset="1" stop-color="#00ffb5"/></linearGradient><linearGradient id="linear-gradient-20" x1="776.4" y1="95.59" x2="1567.87" y2="95.59" gradientTransform="translate(-628.67 459)" gradientUnits="userSpaceOnUse"><stop offset="0" stop-color="#001c38"/><stop offset=".3" stop-color="#005567"/><stop offset=".8" stop-color="#00f2d6"/><stop offset="1" stop-color="#00ffb5"/></linearGradient><linearGradient id="linear-gradient-21" x1="-9395.42" y1="14294.18" x2="-8621.22" y2="14294.18" gradientTransform="translate(-15965.94 4154.55) rotate(-134.51)" gradientUnits="userSpaceOnUse"><stop offset="0" stop-color="#001c39"/><stop offset=".3" stop-color="#005567"/><stop offset=".8" stop-color="#00f2d6"/><stop offset="1" stop-color="#00ffb5"/></linearGradient><linearGradient id="linear-gradient-22" x1="793.74" y1="104.55" x2="1550.71" y2="104.55" gradientTransform="translate(-628.67 459)" xlink:href="#linear-gradient-21"/><linearGradient id="linear-gradient-23" x1="802.41" y1="109.03" x2="1542.13" y2="109.03" gradientTransform="translate(-628.67 459)" gradientUnits="userSpaceOnUse"><stop offset="0" stop-color="#001c3a"/><stop offset=".3" stop-color="#005567"/><stop offset=".8" stop-color="#00f2d6"/><stop offset="1" stop-color="#00ffb5"/></linearGradient><linearGradient id="linear-gradient-24" x1="811.08" y1="113.5" x2="1533.56" y2="113.5" gradientTransform="translate(-628.67 459)" gradientUnits="userSpaceOnUse"><stop offset="0" stop-color="#001c3b"/><stop offset=".3" stop-color="#005567"/><stop offset=".8" stop-color="#00f2d6"/><stop offset="1" stop-color="#00ffb5"/></linearGradient><linearGradient id="linear-gradient-25" x1="-7607.04" y1="13709.57" x2="-6901.84" y2="13709.57" gradientTransform="translate(-14319.33 5013.52) rotate(-134.51)" gradientUnits="userSpaceOnUse"><stop offset="0" stop-color="#001c3c"/><stop offset=".3" stop-color="#005567"/><stop offset=".8" stop-color="#00f2d6"/><stop offset="1" stop-color="#00ffb5"/></linearGradient><linearGradient id="linear-gradient-26" x1="828.43" y1="122.46" x2="1516.4" y2="122.46" gradientTransform="translate(-628.67 459)" xlink:href="#linear-gradient-25"/><linearGradient id="linear-gradient-27" x1="837.1" y1="126.94" x2="1507.83" y2="126.94" gradientTransform="translate(-628.67 459)" gradientUnits="userSpaceOnUse"><stop offset="0" stop-color="#001d3d"/><stop offset=".3" stop-color="#005567"/><stop offset=".8" stop-color="#00f2d6"/><stop offset="1" stop-color="#00ffb5"/></linearGradient><linearGradient id="linear-gradient-28" x1="845.77" y1="131.42" x2="1499.25" y2="131.42" gradientTransform="translate(-628.67 459)" gradientUnits="userSpaceOnUse"><stop offset="0" stop-color="#001d3e"/><stop offset=".3" stop-color="#005567"/><stop offset=".8" stop-color="#00f2d6"/><stop offset="1" stop-color="#00ffb5"/></linearGradient><linearGradient id="linear-gradient-29" x1="-5818.66" y1="13124.96" x2="-5182.45" y2="13124.96" gradientTransform="translate(-12672.73 5872.49) rotate(-134.51)" gradientUnits="userSpaceOnUse"><stop offset="0" stop-color="#001d3f"/><stop offset=".3" stop-color="#005567"/><stop offset=".8" stop-color="#00f2d6"/><stop offset="1" stop-color="#00ffb5"/></linearGradient><linearGradient id="linear-gradient-30" x1="863.12" y1="140.37" x2="1482.09" y2="140.37" gradientTransform="translate(-628.67 459)" xlink:href="#linear-gradient-29"/><linearGradient id="linear-gradient-31" x1="871.79" y1="144.85" x2="1473.52" y2="144.85" gradientTransform="translate(-628.67 459)" gradientUnits="userSpaceOnUse"><stop offset="0" stop-color="#001d40"/><stop offset=".3" stop-color="#005567"/><stop offset=".8" stop-color="#00f2d6"/><stop offset="1" stop-color="#00ffb5"/></linearGradient></defs><g id="Layer_1-2"><g><path class="cls-1" d="M612.88,1224c-13.5,0-27.04-.44-40.62-1.33-82.44-5.37-161.36-26.72-234.58-63.46-70.72-35.49-133.16-83.77-185.59-143.51-52.43-59.73-92.21-127.91-118.24-202.63C6.9,735.72-4.04,654.7,1.33,572.26c5.37-82.44,26.72-161.36,63.46-234.58,35.49-70.72,83.77-133.16,143.5-185.59,59.73-52.43,127.91-92.22,202.63-118.24C488.28,6.9,569.3-4.04,651.74,1.33c82.44,5.37,161.36,26.72,234.58,63.46,70.72,35.49,133.16,83.77,185.59,143.5,52.43,59.73,92.21,127.91,118.24,202.63,26.94,77.36,37.89,158.39,32.52,240.83-5.37,82.44-26.72,161.36-63.46,234.58-35.49,70.72-83.77,133.16-143.51,185.59-59.73,52.43-127.91,92.22-202.63,118.24-64.61,22.5-131.79,33.85-200.2,33.85ZM611.12,.93c-68.32,0-135.38,11.32-199.9,33.79-74.61,25.99-142.68,65.71-202.32,118.06-59.64,52.35-107.85,114.7-143.29,185.31C28.93,411.2,7.61,490,2.25,572.32c-5.36,82.32,5.57,163.22,32.47,240.46,25.99,74.61,65.71,142.68,118.06,202.32,52.35,59.64,114.7,107.85,185.31,143.29,73.1,36.69,151.91,58.01,234.22,63.36,82.32,5.36,163.22-5.57,240.46-32.47,74.61-25.99,142.68-65.71,202.32-118.06,59.64-52.35,107.85-114.7,143.29-185.31,36.69-73.1,58.01-151.91,63.36-234.22,5.36-82.32-5.57-163.22-32.47-240.46-25.99-74.61-65.71-142.68-118.06-202.32-52.35-59.64-114.7-107.85-185.31-143.29C812.8,28.93,734,7.61,651.68,2.25c-13.56-.88-27.09-1.32-40.56-1.32Z"/><path class="cls-6" d="M608.28,1206.86c-13.23,0-26.5-.43-39.82-1.3-80.81-5.26-158.17-26.19-229.94-62.2-69.32-34.79-130.52-82.11-181.92-140.66-51.4-58.55-90.39-125.37-115.9-198.61-26.41-75.83-37.14-155.25-31.88-236.06,5.26-80.81,26.19-158.17,62.2-229.94,34.79-69.32,82.11-130.52,140.66-181.92,58.55-51.4,125.37-90.39,198.62-115.9C486.14,13.86,565.56,3.13,646.37,8.39c80.81,5.26,158.17,26.19,229.94,62.2,69.32,34.79,130.52,82.11,181.92,140.66,51.4,58.55,90.39,125.37,115.9,198.62,26.41,75.83,37.14,155.25,31.88,236.06-5.26,80.81-26.19,158.17-62.2,229.94-34.79,69.32-82.11,130.52-140.66,181.92-58.55,51.39-125.37,90.39-198.62,115.9-63.33,22.06-129.18,33.18-196.24,33.18Zm-1.73-1198.66c-66.94,0-132.66,11.09-195.87,33.11-73.11,25.46-139.81,64.38-198.25,115.69-58.44,51.3-105.68,112.39-140.4,181.58-35.95,71.63-56.84,148.85-62.09,229.51-5.25,80.66,5.46,159.93,31.82,235.62,25.46,73.11,64.38,139.81,115.68,198.25,51.3,58.44,112.39,105.68,181.58,140.4,71.63,35.95,148.85,56.84,229.51,62.09,80.66,5.25,159.93-5.46,235.62-31.82,73.11-25.46,139.81-64.38,198.25-115.69,58.44-51.3,105.68-112.39,140.4-181.58,35.95-71.63,56.84-148.85,62.09-229.51,5.25-80.66-5.46-159.93-31.82-235.62-25.46-73.11-64.38-139.81-115.68-198.25-51.3-58.44-112.39-105.68-181.58-140.4-71.63-35.95-148.85-56.84-229.51-62.09-13.29-.86-26.54-1.3-39.75-1.3Z"/><path class="cls-4" d="M603.68,1189.73c-12.96,0-25.97-.42-39.01-1.27-79.18-5.15-154.97-25.66-225.29-60.95-67.92-34.08-127.89-80.46-178.24-137.82-50.36-57.37-88.56-122.84-113.56-194.6-25.88-74.3-36.39-152.11-31.23-231.29,5.15-79.18,25.66-154.97,60.95-225.29,34.08-67.92,80.45-127.89,137.82-178.24,57.37-50.36,122.84-88.56,194.6-113.56,74.3-25.88,152.11-36.39,231.29-31.23,79.18,5.15,154.97,25.66,225.29,60.95,67.92,34.08,127.89,80.45,178.24,137.82,50.36,57.37,88.56,122.84,113.56,194.6,25.88,74.3,36.39,152.11,31.23,231.29-5.15,79.18-25.66,154.97-60.95,225.29-34.08,67.92-80.45,127.89-137.82,178.24-57.37,50.36-122.84,88.56-194.6,113.56-62.05,21.61-126.57,32.5-192.28,32.51Zm-1.69-1174.24c-65.57,0-129.93,10.87-191.85,32.43-71.6,24.94-136.93,63.06-194.18,113.31-57.24,50.25-103.51,110.09-137.52,177.85-35.21,70.16-55.67,145.79-60.81,224.8-5.14,79,5.34,156.65,31.16,230.78,24.94,71.6,63.06,136.93,113.31,194.18,50.25,57.24,110.09,103.51,177.85,137.52,70.16,35.21,145.79,55.67,224.8,60.81,79,5.14,156.65-5.34,230.78-31.16,71.6-24.94,136.93-63.06,194.18-113.31,57.24-50.25,103.51-110.09,137.52-177.85,35.21-70.16,55.67-145.79,60.81-224.8,5.14-79-5.34-156.65-31.16-230.78-24.94-71.6-63.06-136.93-113.31-194.18-50.25-57.24-110.09-103.51-177.85-137.52-70.16-35.21-145.79-55.67-224.8-60.81-13.01-.85-26-1.27-38.93-1.27Z"/><path class="cls-5" d="M599.08,1172.59c-12.7,0-25.43-.41-38.21-1.25-77.54-5.05-151.78-25.13-220.65-59.69-66.52-33.38-125.25-78.8-174.57-134.98-49.32-56.19-86.74-120.31-111.22-190.59-25.34-72.77-35.64-148.98-30.59-226.52,5.05-77.54,25.13-151.78,59.69-220.65,33.38-66.52,78.8-125.25,134.98-174.57,56.19-49.32,120.31-86.74,190.59-111.22,72.77-25.34,148.98-35.63,226.52-30.59,77.54,5.05,151.78,25.13,220.65,59.69,66.52,33.38,125.25,78.8,174.57,134.98,49.32,56.19,86.74,120.31,111.22,190.59,25.34,72.77,35.64,148.98,30.59,226.52-5.05,77.54-25.13,151.78-59.69,220.65-33.38,66.52-78.8,125.25-134.98,174.57-56.18,49.32-120.31,86.74-190.59,111.22-60.77,21.17-123.96,31.83-188.31,31.84Zm-1.65-1149.83c-64.19,0-127.21,10.64-187.83,31.75-70.1,24.42-134.06,61.74-190.11,110.93-56.04,49.19-101.34,107.78-134.64,174.12-34.47,68.69-54.5,142.74-59.54,220.08-5.03,77.35,5.23,153.36,30.51,225.94,24.42,70.1,61.74,134.06,110.93,190.11,49.19,56.04,107.78,101.34,174.12,134.64,68.69,34.47,142.74,54.5,220.08,59.54,77.35,5.03,153.36-5.23,225.94-30.51,70.1-24.42,134.06-61.74,190.11-110.93,56.04-49.19,101.34-107.78,134.64-174.12,34.47-68.69,54.5-142.74,59.54-220.08,5.03-77.35-5.23-153.36-30.51-225.94-24.42-70.1-61.74-134.06-110.93-190.11-49.19-56.04-107.78-101.34-174.12-134.64-68.69-34.47-142.74-54.5-220.08-59.54-12.74-.83-25.45-1.24-38.11-1.24Z"/><path class="cls-9" d="M594.48,1155.45c-12.43,0-24.9-.41-37.41-1.22-75.91-4.94-148.59-24.6-216-58.43-65.12-32.68-122.61-77.14-170.9-132.14-48.28-55-84.91-117.78-108.88-186.58-24.81-71.23-34.89-145.84-29.95-221.75,4.94-75.91,24.6-148.59,58.43-216,32.68-65.12,77.14-122.61,132.14-170.9,55-48.28,117.78-84.91,186.58-108.88,71.23-24.81,145.84-34.89,221.75-29.95,75.91,4.94,148.59,24.6,216,58.43,65.12,32.68,122.61,77.14,170.9,132.14,48.28,55,84.91,117.78,108.88,186.58,24.81,71.23,34.89,145.84,29.95,221.75-4.94,75.91-24.6,148.59-58.43,216-32.68,65.12-77.14,122.61-132.14,170.9-55,48.28-117.78,84.91-186.58,108.88-59.49,20.72-121.35,31.17-184.35,31.17Zm-1.62-1125.42c-62.82,0-124.48,10.41-183.81,31.07-68.6,23.89-131.19,60.42-186.03,108.56-54.84,48.14-99.17,105.47-131.75,170.39-33.73,67.22-53.34,139.68-58.26,215.37-4.93,75.69,5.12,150.08,29.86,221.1,23.89,68.6,60.42,131.19,108.56,186.03,48.14,54.84,105.47,99.17,170.39,131.75,67.22,33.73,139.68,53.34,215.37,58.26,75.69,4.92,150.08-5.12,221.1-29.86,68.6-23.89,131.19-60.42,186.03-108.56,54.84-48.14,99.17-105.47,131.75-170.39,33.73-67.22,53.34-139.68,58.26-215.37,4.93-75.69-5.12-150.08-29.86-221.1-23.89-68.6-60.42-131.19-108.56-186.03-48.14-54.84-105.47-99.17-170.39-131.75-67.22-33.73-139.68-53.34-215.37-58.26-12.47-.81-24.91-1.22-37.3-1.22Z"/><path class="cls-7" d="M589.88,1138.31c-12.16,0-24.36-.4-36.6-1.19-74.28-4.83-145.39-24.07-211.36-57.18-63.72-31.98-119.98-75.48-167.22-129.3-47.24-53.82-83.09-115.24-106.54-182.57-24.28-69.7-34.14-142.71-29.3-216.99,4.83-74.28,24.07-145.39,57.18-211.36,31.98-63.72,75.48-119.98,129.3-167.22,53.82-47.24,115.24-83.09,182.57-106.54,69.7-24.28,142.71-34.14,216.99-29.3,74.28,4.83,145.39,24.07,211.36,57.18,63.72,31.98,119.98,75.48,167.22,129.3,47.24,53.82,83.09,115.25,106.54,182.57,24.28,69.7,34.14,142.71,29.3,216.99-4.83,74.28-24.07,145.39-57.18,211.36-31.98,63.72-75.48,119.98-129.3,167.22-53.82,47.24-115.25,83.09-182.57,106.54-58.22,20.28-118.74,30.49-180.38,30.5Zm-1.59-1101c-61.44,0-121.76,10.18-179.78,30.39-67.1,23.37-128.32,59.1-181.96,106.18-53.64,47.09-97,103.16-128.87,166.67-33,65.75-52.17,136.62-56.99,210.65-4.82,74.03,5.01,146.79,29.2,216.26,23.37,67.1,59.1,128.32,106.18,181.96,47.09,53.64,103.16,97,166.67,128.87,65.75,33,136.62,52.17,210.65,56.99,74.03,4.82,146.79-5.01,216.26-29.2,67.1-23.37,128.32-59.1,181.96-106.18,53.64-47.09,97-103.16,128.87-166.67,33-65.75,52.17-136.62,56.99-210.65,4.82-74.03-5.01-146.8-29.2-216.26-23.37-67.1-59.1-128.32-106.18-181.96-47.09-53.64-103.16-97-166.66-128.87-65.75-33-136.62-52.17-210.65-56.99-12.2-.79-24.36-1.19-36.48-1.19Z"/><path class="cls-8" d="M585.28,1121.17c-11.9,0-23.83-.39-35.8-1.17-72.65-4.73-142.2-23.54-206.71-55.92-62.32-31.27-117.34-73.82-163.55-126.46-46.2-52.64-81.26-112.71-104.19-178.56-23.74-68.17-33.39-139.57-28.66-212.22,4.73-72.65,23.54-142.2,55.92-206.71,31.27-62.32,73.82-117.34,126.46-163.55,52.64-46.21,112.71-81.26,178.56-104.19,68.17-23.74,139.57-33.39,212.22-28.66,72.65,4.73,142.2,23.54,206.71,55.92,62.32,31.27,117.34,73.82,163.55,126.46,46.2,52.64,81.26,112.71,104.19,178.56,23.74,68.17,33.39,139.57,28.66,212.22-4.73,72.65-23.54,142.2-55.92,206.71-31.27,62.32-73.82,117.34-126.46,163.55-52.64,46.21-112.71,81.26-178.56,104.19-56.94,19.83-116.13,29.83-176.42,29.83Zm-1.55-1076.59c-60.07,0-119.03,9.96-175.76,29.71-65.6,22.85-125.45,57.77-177.89,103.81-52.44,46.03-94.83,100.85-125.99,162.94-32.26,64.28-51,133.56-55.71,205.94-4.71,72.38,4.9,143.51,28.55,211.42,22.85,65.6,57.77,125.45,103.81,177.89,46.03,52.44,100.85,94.83,162.94,125.99,64.28,32.26,133.56,51,205.94,55.71,72.38,4.71,143.51-4.9,211.42-28.55,65.6-22.85,125.45-57.77,177.89-103.81,52.44-46.03,94.83-100.85,125.99-162.94,32.26-64.28,51-133.56,55.71-205.94,4.71-72.38-4.9-143.51-28.55-211.42-22.85-65.6-57.77-125.45-103.81-177.89-46.03-52.44-100.85-94.83-162.94-125.99-64.28-32.26-133.56-51-205.94-55.71-11.92-.78-23.82-1.16-35.67-1.16Z"/><path class="cls-2" d="M580.69,1104.04c-11.63,0-23.29-.38-34.99-1.14-71.02-4.62-139-23.01-202.07-54.66-60.92-30.57-114.71-72.16-159.87-123.62-45.17-51.46-79.44-110.18-101.85-174.55-23.21-66.64-32.64-136.44-28.01-207.45,4.62-71.02,23.01-139,54.67-202.07,30.57-60.92,72.16-114.71,123.62-159.87,51.45-45.17,110.18-79.44,174.55-101.85,66.64-23.21,136.44-32.64,207.45-28.01,71.02,4.62,139,23.01,202.07,54.67,60.92,30.57,114.71,72.16,159.87,123.62,45.17,51.45,79.43,110.18,101.85,174.55,23.21,66.64,32.64,136.44,28.01,207.45-4.62,71.02-23.01,139-54.67,202.07-30.57,60.92-72.16,114.71-123.62,159.87-51.45,45.17-110.18,79.44-174.55,101.85-55.66,19.39-113.52,29.16-172.46,29.16Zm-1.52-1052.18c-58.69,0-116.31,9.73-171.74,29.03-64.1,22.32-122.58,56.45-173.82,101.43-51.24,44.98-92.66,98.54-123.1,159.21-31.52,62.8-49.83,130.51-54.44,201.23-4.6,70.72,4.78,140.23,27.9,206.59,22.32,64.1,56.45,122.58,101.43,173.82,44.98,51.24,98.54,92.66,159.21,123.1,62.8,31.52,130.51,49.83,201.23,54.44,70.72,4.6,140.23-4.78,206.59-27.9,64.1-22.33,122.58-56.45,173.82-101.43s92.66-98.54,123.1-159.21c31.52-62.8,49.83-130.51,54.44-201.23,4.6-70.72-4.78-140.23-27.9-206.59-22.32-64.1-56.45-122.58-101.43-173.82-44.98-51.24-98.54-92.66-159.21-123.1-62.8-31.52-130.51-49.83-201.23-54.44-11.65-.76-23.27-1.14-34.85-1.14Z"/><path class="cls-3" d="M576.09,1086.9c-11.36,0-22.76-.37-34.19-1.12-69.38-4.52-135.81-22.48-197.43-53.41-59.52-29.87-112.07-70.5-156.2-120.78-44.13-50.27-77.61-107.65-99.51-170.53-22.68-65.11-31.89-133.3-27.37-202.68,4.52-69.38,22.48-135.81,53.41-197.43,29.87-59.52,70.5-112.07,120.78-156.2,50.27-44.13,107.65-77.61,170.53-99.51,65.11-22.68,133.3-31.89,202.68-27.37,69.38,4.52,135.81,22.48,197.43,53.41,59.52,29.87,112.07,70.5,156.2,120.78,44.13,50.27,77.61,107.65,99.51,170.53,22.68,65.11,31.89,133.3,27.37,202.68-4.52,69.38-22.48,135.81-53.41,197.43-29.87,59.52-70.5,112.07-120.78,156.2-50.27,44.13-107.65,77.61-170.53,99.51-54.38,18.94-110.92,28.49-168.49,28.49Zm-1.48-1027.76c-57.32,0-113.58,9.5-167.71,28.35-62.6,21.8-119.71,55.13-169.75,99.05-50.04,43.93-90.49,96.24-120.22,155.48-30.78,61.33-48.67,127.45-53.16,196.51-4.49,69.06,4.67,136.94,27.24,201.75,21.8,62.6,55.13,119.71,99.05,169.75,43.93,50.04,96.24,90.49,155.48,120.22,61.33,30.78,127.45,48.67,196.51,53.16,69.06,4.49,136.94-4.67,201.75-27.24,62.6-21.8,119.71-55.13,169.75-99.05,50.04-43.93,90.49-96.24,120.22-155.48,30.78-61.33,48.67-127.45,53.16-196.51,4.49-69.06-4.67-136.94-27.24-201.75-21.8-62.6-55.13-119.71-99.05-169.75-43.93-50.04-96.24-90.49-155.48-120.22-61.33-30.78-127.45-48.67-196.51-53.16-11.38-.74-22.73-1.11-34.03-1.11Z"/><path class="cls-22" d="M571.49,1069.76c-11.09,0-22.22-.36-33.39-1.09-67.75-4.41-132.61-21.96-192.78-52.15-58.12-29.17-109.43-68.85-152.52-117.94-43.09-49.09-75.78-105.12-97.17-166.52-22.14-63.58-31.14-130.17-26.73-197.92,4.41-67.75,21.96-132.61,52.15-192.78,29.17-58.12,68.85-109.43,117.94-152.52,49.09-43.09,105.12-75.78,166.52-97.17,63.58-22.14,130.16-31.14,197.92-26.73,67.75,4.41,132.61,21.96,192.78,52.15,58.12,29.17,109.43,68.85,152.52,117.93,43.09,49.09,75.78,105.12,97.17,166.52,22.14,63.58,31.14,130.16,26.73,197.92-4.41,67.75-21.96,132.61-52.15,192.78-29.17,58.12-68.85,109.43-117.94,152.52-49.09,43.09-105.12,75.78-166.52,97.17-53.1,18.49-108.31,27.82-164.53,27.82Zm-1.45-1003.35c-55.94,0-110.86,9.27-163.69,27.67-61.09,21.28-116.84,53.81-165.68,96.68-48.84,42.87-88.32,93.93-117.34,151.75-30.04,59.86-47.5,124.39-51.89,191.8-4.39,67.41,4.56,133.66,26.59,196.91,21.28,61.09,53.81,116.84,96.68,165.68,42.87,48.84,93.93,88.32,151.75,117.34,59.86,30.04,124.39,47.5,191.8,51.89,67.41,4.38,133.66-4.56,196.91-26.59,61.09-21.28,116.84-53.81,165.68-96.68,48.84-42.87,88.32-93.93,117.34-151.75,30.04-59.86,47.5-124.39,51.89-191.8,4.39-67.41-4.56-133.66-26.59-196.91-21.28-61.09-53.81-116.84-96.68-165.68-42.87-48.84-93.93-88.32-151.75-117.34-59.86-30.04-124.39-47.5-191.8-51.89-11.1-.72-22.18-1.08-33.22-1.08Z"/><path class="cls-23" d="M566.89,1052.62c-10.83,0-21.68-.35-32.58-1.06-66.12-4.3-129.42-21.43-188.14-50.9-56.72-28.46-106.8-67.19-148.85-115.09-42.05-47.91-73.96-102.58-94.83-162.51-21.61-62.05-30.39-127.03-26.08-193.15,4.3-66.12,21.43-129.42,50.9-188.14,28.46-56.72,67.19-106.8,115.09-148.85,47.91-42.05,102.58-73.96,162.51-94.83,62.04-21.61,127.03-30.39,193.15-26.08,66.12,4.3,129.42,21.43,188.14,50.9,56.72,28.46,106.8,67.19,148.85,115.09,42.05,47.91,73.96,102.58,94.83,162.51,21.61,62.05,30.39,127.03,26.08,193.15-4.3,66.12-21.43,129.42-50.9,188.14-28.46,56.72-67.19,106.8-115.09,148.85-47.91,42.05-102.58,73.96-162.51,94.83-51.82,18.05-105.7,27.15-160.57,27.15Zm-1.41-978.93c-54.57,0-108.14,9.04-159.67,26.99-59.59,20.76-113.96,52.48-161.6,94.3-47.64,41.82-86.15,91.62-114.45,148.02-29.3,58.39-46.33,121.34-50.61,187.09-4.28,65.75,4.45,130.37,25.94,192.07,20.76,59.59,52.48,113.96,94.3,161.61,41.82,47.64,91.62,86.15,148.02,114.45,58.39,29.3,121.34,46.33,187.09,50.61,65.75,4.28,130.37-4.45,192.07-25.94,59.59-20.76,113.96-52.48,161.6-94.3,47.64-41.82,86.15-91.62,114.45-148.02,29.3-58.39,46.33-121.34,50.61-187.09,4.28-65.75-4.45-130.37-25.94-192.07-20.76-59.59-52.48-113.96-94.3-161.6-41.82-47.64-91.62-86.15-148.02-114.45-58.39-29.3-121.34-46.33-187.09-50.61-10.83-.7-21.64-1.06-32.4-1.06Z"/><path class="cls-21" d="M562.29,1035.49c-10.56,0-21.15-.35-31.78-1.04-64.49-4.2-126.22-20.9-183.49-49.64-55.32-27.76-104.16-65.53-145.17-112.25-41.01-46.72-72.13-100.05-92.49-158.5-21.08-60.51-29.64-123.89-25.44-188.38,4.2-64.49,20.9-126.22,49.64-183.49,27.76-55.32,65.53-104.16,112.25-145.18,46.72-41.01,100.05-72.13,158.5-92.49,60.51-21.08,123.89-29.64,188.38-25.44,64.49,4.2,126.22,20.9,183.49,49.64,55.32,27.76,104.16,65.53,145.18,112.25,41.01,46.72,72.13,100.05,92.49,158.5,21.08,60.51,29.64,123.89,25.44,188.38-4.2,64.49-20.9,126.22-49.64,183.49-27.76,55.32-65.53,104.16-112.25,145.18-46.72,41.01-100.05,72.13-158.5,92.49-50.54,17.6-103.09,26.48-156.6,26.48Zm-1.37-954.52c-53.19,0-105.41,8.82-155.64,26.31-58.09,20.23-111.09,51.16-157.53,91.93-46.44,40.76-83.98,89.31-111.57,144.29-28.57,56.92-45.16,118.28-49.34,182.37-4.17,64.09,4.33,127.09,25.28,187.23,20.23,58.09,51.16,111.09,91.93,157.53,40.76,46.44,89.31,83.98,144.29,111.57,56.92,28.57,118.28,45.16,182.37,49.34,64.09,4.17,127.09-4.34,187.23-25.28,58.09-20.23,111.09-51.16,157.53-91.93,46.44-40.76,83.98-89.31,111.57-144.29,28.57-56.92,45.16-118.28,49.34-182.37,4.17-64.09-4.33-127.09-25.28-187.23-20.23-58.09-51.16-111.09-91.93-157.53-40.76-46.44-89.31-83.98-144.29-111.57-56.92-28.57-118.28-45.16-182.37-49.34-10.56-.69-21.09-1.03-31.58-1.03Z"/><path class="cls-20" d="M557.69,1018.35c-10.29,0-20.61-.34-30.97-1.01-62.85-4.09-123.03-20.37-178.85-48.38-53.92-27.06-101.52-63.87-141.5-109.41-39.98-45.54-70.31-97.52-90.15-154.49-20.54-58.98-28.89-120.76-24.8-183.61,4.09-62.85,20.37-123.03,48.38-178.85,27.06-53.92,63.87-101.52,109.41-141.5,45.54-39.98,97.52-70.31,154.49-90.15,58.98-20.54,120.76-28.89,183.61-24.79,62.85,4.09,123.03,20.37,178.85,48.38,53.92,27.06,101.52,63.87,141.5,109.41,39.98,45.54,70.31,97.52,90.15,154.49,20.54,58.98,28.89,120.76,24.79,183.61-4.09,62.85-20.37,123.03-48.38,178.85-27.06,53.92-63.87,101.52-109.41,141.5-45.54,39.98-97.52,70.31-154.49,90.15-49.26,17.16-100.48,25.81-152.64,25.81Zm-1.34-930.11c-51.82,0-102.69,8.59-151.62,25.63-56.59,19.71-108.22,49.84-153.46,89.55-45.24,39.71-81.81,87-108.69,140.56-27.83,55.45-44,115.22-48.06,177.66-4.06,62.44,4.22,123.8,24.63,182.39,19.71,56.59,49.84,108.22,89.55,153.46,39.71,45.24,87,81.81,140.56,108.69,55.45,27.83,115.22,44,177.66,48.06,62.44,4.06,123.8-4.22,182.39-24.63,56.59-19.71,108.22-49.84,153.46-89.55,45.24-39.71,81.81-87,108.69-140.56,27.83-55.45,44-115.22,48.06-177.66,4.06-62.44-4.22-123.8-24.63-182.39-19.71-56.59-49.84-108.22-89.55-153.46-39.71-45.24-87-81.81-140.56-108.69-55.45-27.83-115.22-44-177.66-48.06-10.29-.67-20.55-1-30.77-1Z"/><path class="cls-10" d="M553.09,1001.21c-10.02,0-20.08-.33-30.17-.98-61.22-3.98-119.83-19.84-174.21-47.13-52.52-26.36-98.89-62.21-137.83-106.57-38.94-44.36-68.48-94.99-87.81-150.48-20.01-57.45-28.14-117.62-24.15-178.84,3.98-61.22,19.84-119.83,47.13-174.21,26.36-52.52,62.21-98.89,106.57-137.83,44.36-38.94,94.99-68.48,150.48-87.81,57.45-20.01,117.62-28.13,178.84-24.15,61.22,3.98,119.83,19.84,174.21,47.13,52.52,26.36,98.89,62.21,137.83,106.57,38.94,44.36,68.48,94.99,87.81,150.48,20.01,57.45,28.14,117.62,24.15,178.84-3.98,61.22-19.84,119.83-47.13,174.21-26.36,52.52-62.21,98.89-106.57,137.83-44.36,38.94-94.99,68.48-150.48,87.81-47.98,16.71-97.87,25.14-148.68,25.14Zm-1.3-905.69c-50.44,0-99.96,8.36-147.6,24.95-55.09,19.19-105.35,48.52-149.39,87.17-44.04,38.66-79.64,84.69-105.8,136.83-27.09,53.98-42.83,112.16-46.79,172.95-3.96,60.78,4.11,120.52,23.98,177.55,19.19,55.09,48.52,105.35,87.17,149.39,38.66,44.04,84.69,79.64,136.83,105.8,53.98,27.09,112.16,42.83,172.95,46.79,60.78,3.95,120.52-4.11,177.55-23.98,55.09-19.19,105.35-48.52,149.39-87.17,44.04-38.66,79.64-84.69,105.8-136.83,27.09-53.98,42.83-112.16,46.79-172.95,3.96-60.78-4.11-120.52-23.98-177.55-19.19-55.09-48.52-105.35-87.17-149.39-38.66-44.04-84.69-79.64-136.83-105.8-53.98-27.09-112.16-42.83-172.95-46.79-10.01-.65-20-.98-29.95-.98Z"/><path class="cls-16" d="M548.49,984.07c-9.76,0-19.54-.32-29.36-.96-59.59-3.88-116.64-19.31-169.56-45.87-51.12-25.65-96.25-60.55-134.15-103.73-37.9-43.18-66.66-92.45-85.47-146.46-19.48-55.92-27.39-114.49-23.51-174.08,3.88-59.59,19.31-116.64,45.87-169.56,25.65-51.12,60.55-96.25,103.73-134.15,43.18-37.9,92.45-66.66,146.46-85.47,55.92-19.48,114.49-27.39,174.08-23.51,59.59,3.88,116.64,19.31,169.56,45.87,51.12,25.65,96.25,60.55,134.15,103.73,37.9,43.18,66.66,92.45,85.47,146.47,19.48,55.92,27.39,114.49,23.51,174.08-3.88,59.59-19.31,116.64-45.87,169.56-25.65,51.12-60.55,96.25-103.73,134.15-43.18,37.9-92.45,66.66-146.46,85.47-46.7,16.27-95.26,24.47-144.71,24.47Zm-1.27-881.28c-49.07,0-97.24,8.13-143.58,24.27-53.59,18.66-102.48,47.19-145.32,84.8-42.84,37.6-77.47,82.39-102.92,133.1-26.35,52.51-41.66,109.11-45.51,168.23-3.85,59.12,4,117.23,23.32,172.71,18.66,53.59,47.19,102.48,84.8,145.32,37.6,42.84,82.39,77.47,133.1,102.92,52.51,26.35,109.11,41.66,168.23,45.51,59.13,3.85,117.23-4,172.71-23.32,53.59-18.66,102.48-47.19,145.32-84.8,42.84-37.6,77.47-82.39,102.92-133.1,26.35-52.51,41.66-109.11,45.51-168.23,3.85-59.12-4-117.23-23.32-172.71-18.66-53.59-47.19-102.48-84.8-145.32-37.6-42.84-82.39-77.47-133.1-102.92-52.51-26.35-109.11-41.66-168.23-45.51-9.74-.63-19.46-.95-29.13-.95Z"/><path class="cls-18" d="M543.2,967.02c-4.25,0-8.49-.06-12.75-.19-57.57-1.69-113.53-14.81-166.34-39-52.81-24.19-99.29-57.99-138.18-100.48-37.56-41.04-66.47-88.4-85.94-140.77-19.47-52.38-28.51-107.13-26.88-162.73,1.69-57.57,14.81-113.53,39-166.34,24.19-52.81,57.99-99.29,100.48-138.18,41.04-37.56,88.4-66.47,140.77-85.94,52.38-19.47,107.13-28.51,162.73-26.88,57.57,1.69,113.53,14.81,166.34,39,52.81,24.19,99.29,57.99,138.18,100.48,37.56,41.04,66.47,88.4,85.94,140.77,19.47,52.38,28.51,107.13,26.88,162.73-1.69,57.57-14.81,113.53-39,166.34-24.19,52.8-57.99,99.29-100.48,138.18-41.04,37.55-88.4,66.47-140.77,85.94-48.36,17.98-98.76,27.07-149.97,27.07Zm.14-857.03c-50.78,0-100.75,9.01-148.71,26.84-51.93,19.3-98.9,47.97-139.58,85.21-42.12,38.55-75.64,84.65-99.62,137-23.98,52.36-36.99,107.85-38.67,164.92-1.62,55.13,7.35,109.42,26.65,161.35,19.3,51.93,47.97,98.9,85.21,139.58,38.55,42.12,84.65,75.64,137,99.62,52.36,23.98,107.85,36.99,164.92,38.67,55.13,1.62,109.42-7.35,161.35-26.65,51.93-19.31,98.9-47.97,139.58-85.21,42.12-38.55,75.64-84.65,99.62-137,23.98-52.36,36.99-107.85,38.67-164.92,1.62-55.13-7.35-109.42-26.65-161.35-19.3-51.93-47.97-98.9-85.21-139.58-38.55-42.12-84.65-75.64-137-99.62-52.36-23.98-107.85-36.99-164.92-38.67-4.22-.12-8.44-.19-12.64-.19Z"/><path class="cls-19" d="M543.41,962.77c-1.25,0-2.48,0-3.73-.02-54.76-.47-108.04-11.32-158.38-32.24-52.12-21.66-98.77-53.22-138.67-93.81-39.9-40.59-70.65-87.78-91.41-140.27-20.05-50.69-29.97-104.16-29.5-158.91,.47-54.76,11.32-108.04,32.24-158.38,21.66-52.12,53.22-98.77,93.81-138.67,40.59-39.9,87.78-70.65,140.27-91.41,50.69-20.05,104.15-29.99,158.91-29.5,54.76,.47,108.04,11.32,158.38,32.24,52.12,21.66,98.77,53.22,138.67,93.81,39.9,40.59,70.65,87.78,91.41,140.27,20.05,50.69,29.97,104.16,29.5,158.91-.47,54.76-11.32,108.04-32.24,158.38-21.66,52.12-53.22,98.77-93.81,138.67-40.59,39.9-87.78,70.65-140.27,91.41-49.54,19.59-101.73,29.52-155.18,29.52Zm-.19-839.7c-53.01,0-104.76,9.84-153.89,29.27-52.04,20.58-98.84,51.08-139.09,90.64-40.25,39.56-71.55,85.83-93.03,137.51-20.75,49.92-31.5,102.76-31.97,157.06-.47,54.3,9.37,107.32,29.25,157.59,20.58,52.04,51.08,98.84,90.64,139.09,39.56,40.25,85.83,71.55,137.51,93.03,49.92,20.75,102.76,31.5,157.06,31.97,54.3,.45,107.32-9.37,157.59-29.26,52.04-20.58,98.84-51.08,139.09-90.64,40.25-39.57,71.55-85.83,93.03-137.51,20.75-49.92,31.5-102.76,31.97-157.06,.47-54.3-9.37-107.32-29.25-157.59-20.58-52.04-51.08-98.84-90.64-139.09-39.56-40.25-85.83-71.55-137.51-93.03-49.92-20.75-102.76-31.5-157.06-31.97-1.23-.01-2.47-.02-3.7-.02Z"/><path class="cls-11" d="M543.46,958.62c-1.22,0-2.43,0-3.66-.02-53.64-.46-105.83-11.09-155.14-31.58-51.05-21.22-96.75-52.13-135.83-91.9-39.08-39.76-69.21-85.99-89.54-137.4-19.64-49.65-29.36-102.03-28.9-155.66,.46-53.64,11.09-105.83,31.58-155.14,21.22-51.05,52.13-96.75,91.9-135.83,39.76-39.08,85.99-69.21,137.4-89.54,49.65-19.64,102.02-29.37,155.66-28.9,53.64,.46,105.83,11.09,155.14,31.58,51.05,21.22,96.75,52.13,135.83,91.9,39.08,39.76,69.21,85.99,89.54,137.4,19.64,49.65,29.36,102.03,28.9,155.66-.46,53.64-11.09,105.83-31.58,155.14-21.22,51.05-52.13,96.75-91.9,135.83-39.76,39.08-85.99,69.21-137.4,89.54-48.52,19.19-99.65,28.91-152,28.91Zm-.18-822.58c-51.93,0-102.63,9.64-150.76,28.68-50.98,20.16-96.83,50.04-136.27,88.8-39.44,38.76-70.1,84.09-91.14,134.71-20.32,48.9-30.86,100.67-31.32,153.87-.46,53.2,9.18,105.14,28.66,154.38,20.16,50.98,50.04,96.83,88.8,136.27,38.76,39.44,84.09,70.1,134.71,91.14,48.9,20.32,100.67,30.86,153.87,31.32,53.19,.47,105.14-9.18,154.38-28.66,50.98-20.16,96.83-50.04,136.27-88.8,39.44-38.76,70.1-84.08,91.14-134.71,20.32-48.9,30.86-100.67,31.32-153.87,.46-53.2-9.18-105.14-28.66-154.38-20.16-50.98-50.04-96.83-88.8-136.27-38.76-39.44-84.09-70.1-134.71-91.14-48.9-20.32-100.67-30.86-153.87-31.32-1.21-.01-2.42-.02-3.63-.02Z"/><path class="cls-17" d="M543.5,954.47c-1.19,0-2.38,0-3.58-.02-52.52-.45-103.62-10.86-151.9-30.92-49.98-20.77-94.73-51.05-132.99-89.98-38.26-38.93-67.76-84.19-87.67-134.53-19.23-48.62-28.75-99.9-28.29-152.41,.45-52.51,10.86-103.62,30.92-151.9,20.77-49.98,51.05-94.73,89.98-132.99,38.93-38.26,84.19-67.76,134.53-87.67,48.62-19.23,99.9-28.75,152.41-28.29,52.52,.45,103.62,10.86,151.9,30.92,49.98,20.77,94.73,51.05,132.99,89.98,38.26,38.93,67.76,84.19,87.67,134.53,19.23,48.62,28.75,99.9,28.29,152.41-.45,52.51-10.86,103.62-30.92,151.9-20.77,49.98-51.05,94.73-89.98,132.99-38.93,38.26-84.19,67.76-134.53,87.67-47.51,18.79-97.57,28.31-148.83,28.31Zm-286.14-123.2c37.96,38.62,82.34,68.65,131.92,89.25,47.89,19.9,98.58,30.22,150.67,30.67,52.09,.47,102.96-8.99,151.18-28.07,49.93-19.75,94.82-49,133.44-86.96,38.62-37.96,68.65-82.34,89.25-131.92,19.9-47.89,30.22-98.58,30.67-150.68,.45-52.09-8.99-102.96-28.07-151.18-19.75-49.93-49-94.82-86.96-133.44-37.96-38.62-82.34-68.65-131.92-89.25-47.89-19.9-98.58-30.22-150.67-30.67-52.1-.48-102.96,8.99-151.18,28.07-49.93,19.75-94.82,49-133.44,86.96-38.62,37.96-68.65,82.34-89.25,131.92-19.9,47.89-30.22,98.58-30.67,150.67-.45,52.09,8.99,102.96,28.07,151.18,19.75,49.93,49,94.82,86.96,133.44h0Z"/><path class="cls-13" d="M543.55,950.33c-1.17,0-2.33,0-3.5-.01-51.39-.44-101.41-10.62-148.66-30.26-48.92-20.33-92.71-49.96-130.16-88.06-37.45-38.1-66.32-82.4-85.8-131.66-18.82-47.58-28.13-97.76-27.69-149.16,.44-51.39,10.62-101.41,30.26-148.66,20.33-48.92,49.96-92.71,88.06-130.16,38.1-37.45,82.4-66.32,131.66-85.8,47.58-18.82,97.76-28.15,149.16-27.69,51.39,.44,101.41,10.62,148.66,30.26,48.92,20.33,92.71,49.96,130.16,88.06,37.45,38.1,66.32,82.4,85.8,131.66,18.82,47.58,28.13,97.76,27.69,149.16-.44,51.39-10.62,101.41-30.26,148.66-20.33,48.92-49.96,92.71-88.06,130.16-38.1,37.45-82.4,66.31-131.66,85.8-46.5,18.39-95.49,27.71-145.66,27.71Zm-.17-788.34c-49.78,0-98.37,9.24-144.5,27.49-48.87,19.33-92.81,47.97-130.61,85.12-37.8,37.15-67.19,80.6-87.36,129.12-19.48,46.87-29.58,96.49-30.02,147.48-.44,50.99,8.8,100.78,27.47,147.98,19.33,48.87,47.97,92.81,85.12,130.61,37.15,37.8,80.6,67.19,129.12,87.36,46.87,19.48,96.49,29.58,147.48,30.02,50.99,.45,100.78-8.8,147.98-27.47,48.87-19.33,92.81-47.97,130.61-85.12,37.8-37.15,67.19-80.6,87.36-129.12,19.48-46.87,29.58-96.49,30.02-147.48,.44-50.99-8.8-100.78-27.47-147.98-19.33-48.87-47.97-92.81-85.12-130.61-37.15-37.8-80.6-67.19-129.12-87.36-46.87-19.48-96.49-29.58-147.48-30.02-1.16-.01-2.32-.02-3.47-.02Z"/><path class="cls-14" d="M543.59,946.18c-1.14,0-2.28,0-3.43-.01-50.27-.43-99.2-10.39-145.42-29.6-47.85-19.89-90.69-48.87-127.32-86.14-36.63-37.27-64.87-80.6-83.93-128.79-18.41-46.54-27.52-95.63-27.09-145.91,.43-50.27,10.39-99.2,29.6-145.42,19.89-47.85,48.87-90.69,86.14-127.32,37.27-36.63,80.6-64.87,128.79-83.93,46.54-18.41,95.64-27.53,145.91-27.09,50.27,.43,99.2,10.39,145.42,29.6,47.85,19.89,90.69,48.87,127.32,86.14,36.63,37.27,64.87,80.6,83.93,128.79,18.41,46.54,27.52,95.63,27.09,145.91-.43,50.27-10.39,99.2-29.6,145.42-19.89,47.85-48.87,90.69-86.14,127.32-37.27,36.63-80.6,64.87-128.79,83.93-45.48,17.99-93.41,27.1-142.48,27.1Zm-.17-771.21c-48.7,0-96.24,9.04-141.38,26.89-47.81,18.91-90.8,46.93-127.79,83.28-36.98,36.35-65.74,78.85-85.47,126.33-19.06,45.86-28.94,94.41-29.37,144.29-.43,49.89,8.61,98.6,26.88,144.78,18.91,47.81,46.93,90.8,83.28,127.79,36.35,36.98,78.85,65.74,126.33,85.47,45.86,19.06,94.41,28.94,144.29,29.37,49.88,.42,98.6-8.61,144.78-26.88,47.81-18.91,90.81-46.93,127.79-83.28,36.98-36.35,65.74-78.85,85.47-126.33,19.06-45.86,28.94-94.41,29.37-144.29,.43-49.89-8.61-98.6-26.88-144.78-18.91-47.81-46.93-90.8-83.28-127.79-36.35-36.98-78.85-65.74-126.33-85.47-45.86-19.06-94.41-28.94-144.29-29.37-1.13,0-2.27-.01-3.4-.01Z"/><path class="cls-12" d="M543.64,942.03c-1.12,0-2.23,0-3.35-.01-49.15-.42-96.99-10.16-142.18-28.94-46.79-19.44-88.67-47.78-124.48-84.22-35.82-36.44-63.42-78.8-82.06-125.92-18-45.51-26.91-93.5-26.48-142.66,.42-49.15,10.16-96.99,28.94-142.18,19.44-46.79,47.78-88.67,84.22-124.48,36.44-35.82,78.8-63.42,125.92-82.06,45.51-18,93.5-26.9,142.66-26.48,49.15,.42,96.99,10.16,142.18,28.94,46.79,19.44,88.67,47.78,124.48,84.22,35.82,36.44,63.42,78.8,82.06,125.92,18,45.51,26.91,93.5,26.48,142.66-.42,49.15-10.16,96.99-28.94,142.18-19.44,46.79-47.78,88.67-84.22,124.48-36.44,35.82-78.8,63.42-125.92,82.06-44.47,17.59-91.32,26.5-139.31,26.5Zm-267.96-115.19c35.54,36.16,77.11,64.28,123.54,83.58,44.84,18.64,92.32,28.3,141.1,28.72,48.78,.4,96.41-8.42,141.57-26.28,46.75-18.49,88.8-45.89,124.96-81.43,36.16-35.55,64.28-77.11,83.58-123.54,18.64-44.84,28.3-92.32,28.72-141.1,.42-48.78-8.42-96.41-26.28-141.57-18.49-46.75-45.89-88.8-81.43-124.96-35.54-36.16-77.11-64.28-123.54-83.58-44.84-18.64-92.32-28.3-141.1-28.72-48.78-.41-96.41,8.42-141.57,26.28-46.75,18.49-88.8,45.89-124.96,81.43-36.16,35.54-64.28,77.11-83.58,123.54-18.64,44.84-28.3,92.32-28.72,141.1-.42,48.78,8.42,96.42,26.28,141.57,18.49,46.75,45.89,88.8,81.43,124.96Z"/><path class="cls-15" d="M543.68,937.89c-1.09,0-2.18,0-3.27-.01-48.03-.41-94.78-9.93-138.94-28.28-45.72-19-86.65-46.69-121.65-82.3-35-35.61-61.98-77.01-80.19-123.05-17.59-44.47-26.3-91.37-25.88-139.41,.41-48.03,9.93-94.78,28.28-138.94,19-45.72,46.69-86.65,82.3-121.65,35.61-35,77.01-61.98,123.05-80.19,44.47-17.59,91.37-26.3,139.41-25.88,48.03,.41,94.78,9.93,138.94,28.28,45.72,19,86.65,46.69,121.65,82.3,35,35.61,61.98,77.01,80.19,123.05,17.59,44.47,26.3,91.37,25.88,139.41-.41,48.03-9.93,94.78-28.28,138.94-19,45.72-46.69,86.65-82.3,121.65-35.61,35-77.01,61.98-123.05,80.19-43.46,17.19-89.24,25.89-136.13,25.89Zm-.16-736.97c-46.55,0-91.99,8.64-135.12,25.7-45.7,18.07-86.79,44.85-122.13,79.59-35.35,34.74-62.83,75.36-81.69,120.74-18.22,43.83-27.66,90.23-28.07,137.91-.41,47.68,8.23,94.23,25.69,138.37,18.07,45.7,44.85,86.79,79.59,122.13,34.74,35.35,75.36,62.83,120.74,81.69,43.83,18.22,90.23,27.66,137.91,28.07,47.68,.42,94.23-8.23,138.37-25.69,45.7-18.07,86.79-44.85,122.13-79.59,35.35-34.74,62.83-75.36,81.69-120.74,18.22-43.83,27.66-90.23,28.07-137.91,.41-47.68-8.23-94.23-25.69-138.37-18.07-45.7-44.85-86.79-79.59-122.13-34.74-35.35-75.36-62.83-120.74-81.69-43.83-18.22-90.23-27.66-137.91-28.07-1.08,0-2.17-.01-3.25-.01Z"/><path class="cls-25" d="M543.73,933.74c-1.07,0-2.13,0-3.2-.01-46.91-.4-92.57-9.7-135.7-27.62-44.65-18.56-84.63-45.6-118.81-80.38-34.18-34.78-60.53-75.21-78.32-120.18-17.18-43.43-25.68-89.24-25.28-136.16,.4-46.91,9.7-92.57,27.62-135.7,18.56-44.65,45.6-84.63,80.38-118.81,34.78-34.18,75.21-60.53,120.18-78.32,43.43-17.18,89.24-25.68,136.16-25.28,46.91,.4,92.57,9.7,135.7,27.62,44.65,18.56,84.63,45.6,118.81,80.38,34.18,34.78,60.53,75.21,78.32,120.18,17.18,43.43,25.68,89.24,25.28,136.16-.4,46.91-9.7,92.57-27.62,135.7-18.56,44.65-45.6,84.63-80.38,118.81-34.78,34.18-75.21,60.53-120.18,78.32-42.44,16.79-87.16,25.29-132.96,25.29Zm-.16-719.85c-45.47,0-89.86,8.44-132,25.11-44.64,17.65-84.78,43.81-119.31,77.75-34.53,33.94-61.38,73.62-79.8,117.95-17.79,42.82-27.02,88.14-27.42,134.72-.4,46.58,8.04,92.05,25.09,135.17,17.65,44.64,43.81,84.78,77.75,119.31,33.94,34.53,73.62,61.38,117.95,79.8,42.82,17.79,88.14,27.02,134.72,27.42,46.58,.4,92.05-8.04,135.17-25.09,44.64-17.65,84.78-43.81,119.31-77.75,34.53-33.94,61.38-73.62,79.8-117.95,17.79-42.82,27.02-88.14,27.42-134.72,.4-46.58-8.04-92.05-25.09-135.17-17.65-44.64-43.81-84.78-77.75-119.31-33.94-34.53-73.62-61.38-117.95-79.8-42.82-17.79-88.14-27.02-134.72-27.42-1.06,0-2.12-.01-3.17-.01Z"/><path class="cls-27" d="M543.78,929.59c-1.04,0-2.08,0-3.12-.01-45.79-.39-90.36-9.47-132.46-26.96-43.59-18.11-82.61-44.51-115.97-78.46-33.37-33.95-59.09-73.42-76.45-117.31-16.77-42.4-25.07-87.11-24.67-132.91,.4-45.79,9.47-90.36,26.96-132.46,18.11-43.59,44.51-82.61,78.46-115.97,33.95-33.37,73.42-59.09,117.31-76.45,42.4-16.77,87.11-25.09,132.91-24.67,45.79,.39,90.36,9.47,132.46,26.96,43.59,18.11,82.61,44.51,115.97,78.46,33.37,33.95,59.09,73.42,76.45,117.31,16.77,42.4,25.07,87.11,24.67,132.91-.4,45.79-9.47,90.36-26.96,132.46-18.11,43.59-44.51,82.61-78.46,115.97-33.95,33.37-73.42,59.09-117.31,76.45-41.43,16.39-85.08,24.69-129.78,24.69Zm-249.78-107.19c33.13,33.71,71.88,59.92,115.15,77.91,41.8,17.37,86.05,26.38,131.52,26.77,45.47,.37,89.87-7.85,131.97-24.5,43.58-17.24,82.77-42.78,116.48-75.91,33.71-33.13,59.92-71.88,77.91-115.15,17.37-41.8,26.38-86.05,26.77-131.52,.39-45.47-7.85-89.87-24.5-131.97-17.24-43.58-42.78-82.77-75.91-116.48-33.13-33.71-71.88-59.92-115.15-77.91-41.8-17.37-86.05-26.38-131.52-26.77-45.48-.4-89.87,7.85-131.97,24.5-43.58,17.24-82.77,42.78-116.48,75.91-33.71,33.13-59.92,71.88-77.91,115.15-17.37,41.8-26.38,86.05-26.77,131.52-.39,45.47,7.85,89.87,24.5,131.97,17.24,43.58,42.78,82.77,75.91,116.48Z"/><path class="cls-26" d="M543.82,925.44c-1.02,0-2.03,0-3.04-.01-44.67-.39-88.15-9.23-129.22-26.3-42.52-17.67-80.59-43.42-113.14-76.54-32.55-33.12-57.64-71.62-74.58-114.44-16.36-41.36-24.46-84.98-24.07-129.65,.39-44.67,9.24-88.15,26.3-129.22,17.67-42.52,43.42-80.59,76.54-113.14,33.12-32.55,71.62-57.64,114.44-74.58,41.36-16.36,84.98-24.44,129.65-24.07,44.67,.39,88.15,9.24,129.22,26.3,42.52,17.67,80.59,43.42,113.14,76.54,32.55,33.12,57.64,71.62,74.58,114.44,16.36,41.36,24.46,84.98,24.07,129.65-.39,44.67-9.24,88.15-26.3,129.22-17.67,42.52-43.42,80.59-76.54,113.14-33.12,32.55-71.62,57.64-114.44,74.58-40.42,15.98-83,24.08-126.61,24.08Zm-.15-685.61c-43.31,0-85.6,8.04-125.74,23.92-42.52,16.82-80.76,41.74-113.65,74.07-32.89,32.33-58.47,70.13-76.02,112.36-16.95,40.79-25.74,83.96-26.12,128.33-.38,44.37,7.66,87.69,23.9,128.76,16.82,42.52,41.74,80.76,74.07,113.65,32.33,32.89,70.13,58.47,112.36,76.02,40.79,16.95,83.96,25.74,128.33,26.12,44.37,.36,87.69-7.66,128.77-23.9,42.52-16.82,80.76-41.74,113.65-74.07,32.89-32.33,58.47-70.13,76.02-112.36,16.95-40.79,25.74-83.96,26.12-128.33,.38-44.37-7.66-87.69-23.9-128.76-16.82-42.52-41.74-80.76-74.07-113.65-32.33-32.89-70.13-58.47-112.36-76.02-40.79-16.95-83.96-25.74-128.33-26.12-1.01,0-2.02-.01-3.02-.01Z"/><path class="cls-24" d="M543.87,921.3c-.99,0-1.98,0-2.97-.01-43.55-.38-85.94-9-125.98-25.64-41.45-17.23-78.56-42.34-110.3-74.62-31.74-32.29-56.2-69.83-72.71-111.57-15.95-40.32-23.84-82.85-23.47-126.4,.38-43.55,9-85.94,25.64-125.98,17.23-41.45,42.34-78.56,74.62-110.3,32.29-31.74,69.83-56.2,111.57-72.71,40.32-15.95,82.85-23.83,126.4-23.47,43.55,.38,85.94,9,125.98,25.64,41.45,17.23,78.56,42.34,110.3,74.62,31.74,32.29,56.2,69.83,72.71,111.57,15.95,40.32,23.84,82.85,23.47,126.4-.38,43.55-9,85.94-25.64,125.98-17.23,41.45-42.34,78.56-74.62,110.3-32.29,31.73-69.83,56.2-111.57,72.71-39.4,15.58-80.92,23.48-123.44,23.48Zm-237.65-101.85c31.52,32.07,68.39,57.01,109.56,74.13,39.77,16.53,81.88,25.1,125.14,25.47,43.26,.38,85.51-7.47,125.56-23.31,41.47-16.4,78.75-40.7,110.83-72.22,32.07-31.52,57.01-68.39,74.13-109.56,16.53-39.77,25.1-81.88,25.47-125.14,.37-43.27-7.47-85.51-23.31-125.56-16.4-41.47-40.7-78.75-72.22-110.83-31.52-32.07-68.39-57.01-109.56-74.13-39.77-16.53-81.88-25.1-125.14-25.47-43.26-.38-85.51,7.47-125.56,23.31-41.47,16.4-78.75,40.7-110.83,72.22-32.07,31.52-57.01,68.39-74.13,109.56-16.53,39.77-25.1,81.88-25.47,125.14-.37,43.27,7.47,85.51,23.31,125.56,16.4,41.47,40.7,78.75,72.22,110.83Z"/><path class="cls-28" d="M543.91,917.15c-.96,0-1.93,0-2.89-.01-42.43-.37-83.73-8.77-122.74-24.98-40.39-16.79-76.54-41.25-107.46-72.7-30.92-31.46-54.75-68.03-70.84-108.7-15.54-39.28-23.23-80.72-22.86-123.15,.37-42.43,8.77-83.73,24.98-122.74,16.79-40.39,41.25-76.54,72.7-107.46,31.46-30.92,68.03-54.75,108.7-70.84,39.28-15.54,80.72-23.22,123.15-22.86,42.43,.37,83.73,8.77,122.74,24.99,40.39,16.79,76.54,41.25,107.46,72.7,30.92,31.46,54.75,68.03,70.84,108.7,15.54,39.28,23.23,80.72,22.86,123.15-.37,42.43-8.77,83.73-24.98,122.74-16.79,40.39-41.25,76.54-72.7,107.46-31.46,30.92-68.03,54.75-108.7,70.84-38.39,15.18-78.84,22.88-120.26,22.88Zm-231.59-99.18c30.72,31.26,66.64,55.56,106.77,72.24,38.76,16.11,79.79,24.46,121.95,24.82,42.16,.39,83.33-7.28,122.36-22.72,40.41-15.98,76.75-39.66,108-70.38,31.26-30.72,55.56-66.64,72.24-106.77,16.11-38.76,24.46-79.79,24.82-121.95,.36-42.16-7.28-83.33-22.72-122.36-15.98-40.41-39.66-76.74-70.38-108-30.72-31.26-66.64-55.56-106.77-72.24-38.76-16.11-79.79-24.46-121.95-24.82-42.16-.36-83.33,7.28-122.36,22.72-40.41,15.98-76.75,39.66-108,70.38-31.26,30.72-55.56,66.64-72.24,106.77-16.11,38.76-24.46,79.79-24.82,121.95-.36,42.16,7.28,83.33,22.72,122.36,15.98,40.41,39.66,76.74,70.38,108Z"/><path class="cls-29" d="M543.96,913c-.94,0-1.87,0-2.82-.01-41.31-.36-81.52-8.54-119.5-24.33-39.32-16.34-74.52-40.16-104.63-70.79-30.1-30.63-53.31-66.23-68.97-105.83-15.13-38.25-22.62-78.59-22.26-119.9,.36-41.31,8.54-81.52,24.33-119.5,16.34-39.32,40.16-74.52,70.79-104.63,30.63-30.1,66.23-53.31,105.83-68.97,38.25-15.13,78.59-22.59,119.9-22.26,41.31,.36,81.52,8.54,119.5,24.33,39.32,16.34,74.52,40.16,104.63,70.79,30.1,30.63,53.31,66.23,68.97,105.83,15.13,38.25,22.62,78.59,22.26,119.9-.36,41.31-8.54,81.52-24.33,119.5-16.34,39.32-40.16,74.52-70.79,104.63-30.63,30.1-66.23,53.31-105.83,68.97-37.38,14.78-76.76,22.27-117.09,22.27Zm-.14-634.25c-40.08,0-79.21,7.44-116.36,22.13-39.35,15.56-74.74,38.62-105.17,68.54-30.44,29.92-54.11,64.9-70.35,103.98-15.69,37.74-23.82,77.7-24.17,118.76-.35,41.06,7.09,81.15,22.12,119.16,15.56,39.35,38.62,74.74,68.54,105.17,29.92,30.44,64.9,54.1,103.98,70.35,37.74,15.69,77.7,23.82,118.76,24.17,41.05,.37,81.15-7.09,119.16-22.12,39.35-15.56,74.74-38.62,105.17-68.54,30.44-29.92,54.1-64.9,70.35-103.98,15.69-37.74,23.82-77.7,24.17-118.76,.35-41.06-7.09-81.15-22.12-119.16-15.56-39.35-38.62-74.74-68.54-105.17-29.92-30.44-64.9-54.11-103.98-70.35-37.74-15.69-77.7-23.82-118.76-24.17-.93,0-1.87-.01-2.8-.01Z"/><path class="cls-30" d="M544,908.86c-.91,0-1.82,0-2.74-.01-40.19-.35-79.31-8.31-116.26-23.67-38.26-15.9-72.5-39.07-101.79-68.87-29.29-29.8-51.86-64.44-67.1-102.96-14.72-37.21-22-76.46-21.66-116.65,.35-40.19,8.31-79.31,23.67-116.26,15.9-38.26,39.07-72.5,68.87-101.79,29.8-29.29,64.44-51.86,102.96-67.1,37.21-14.72,76.45-22.01,116.65-21.66,40.19,.35,79.31,8.31,116.26,23.67,38.26,15.9,72.5,39.07,101.79,68.87,29.29,29.8,51.86,64.44,67.1,102.96,14.72,37.21,22,76.46,21.66,116.65-.35,40.19-8.31,79.31-23.67,116.26-15.9,38.26-39.07,72.5-68.87,101.79-29.8,29.29-64.44,51.86-102.96,67.1-36.36,14.38-74.68,21.67-113.91,21.67Zm-.14-617.13c-39.01,0-77.08,7.24-113.23,21.54-38.29,15.14-72.73,37.59-102.35,66.7-29.62,29.11-52.65,63.16-68.45,101.18-15.26,36.73-23.18,75.61-23.52,115.57-.34,39.95,6.9,78.97,21.53,115.96,15.15,38.29,37.59,72.73,66.7,102.35,29.11,29.62,63.15,52.65,101.18,68.45,36.73,15.26,75.61,23.18,115.57,23.52,39.95,.33,78.97-6.9,115.96-21.53,38.29-15.14,72.73-37.59,102.35-66.7,29.62-29.11,52.65-63.16,68.45-101.18,15.26-36.73,23.18-75.61,23.52-115.57,.34-39.95-6.9-78.97-21.53-115.96-15.15-38.29-37.59-72.73-66.7-102.35-29.11-29.62-63.15-52.65-101.18-68.45-36.73-15.27-75.61-23.18-115.57-23.52-.91,0-1.82-.01-2.72-.01Z"/><path class="cls-31" d="M544.05,904.71c-.89,0-1.77,0-2.66-.01-39.07-.34-77.1-8.08-113.02-23.01-37.19-15.46-70.48-37.98-98.95-66.95-28.47-28.97-50.42-62.64-65.23-100.09-14.31-36.17-21.39-74.33-21.05-113.4,.34-39.07,8.08-77.1,23.01-113.02,15.46-37.19,37.98-70.48,66.95-98.95l.6,.61-.6-.61c28.97-28.47,62.64-50.42,100.09-65.23,36.17-14.31,74.32-21.39,113.4-21.05,39.07,.34,77.1,8.08,113.02,23.01,37.19,15.46,70.48,37.98,98.95,66.95,28.47,28.97,50.42,62.64,65.23,100.09,14.31,36.17,21.39,74.33,21.05,113.4-.34,39.07-8.08,77.1-23.01,113.02-15.46,37.19-37.98,70.48-66.95,98.95-28.97,28.47-62.64,50.42-100.09,65.23-35.35,13.98-72.59,21.06-110.74,21.06Zm-.13-600.01c-37.93,0-74.96,7.04-110.11,20.94-37.24,14.73-70.72,36.55-99.52,64.86-28.8,28.31-51.2,61.41-66.56,98.39-14.84,35.71-22.54,73.52-22.87,112.37-.34,38.85,6.71,76.79,20.93,112.75,14.73,37.24,36.55,70.72,64.86,99.52,28.31,28.8,61.41,51.2,98.39,66.56,35.72,14.84,73.52,22.54,112.37,22.88,38.86,.3,76.79-6.71,112.75-20.93,37.24-14.73,70.72-36.55,99.52-64.86,28.8-28.31,51.2-61.41,66.56-98.39,14.84-35.72,22.54-73.52,22.87-112.37,.34-38.85-6.71-76.79-20.93-112.75-14.73-37.24-36.55-70.72-64.86-99.52-28.31-28.8-61.41-51.2-98.39-66.56-35.72-14.84-73.52-22.54-112.37-22.87-.88,0-1.77-.01-2.65-.01Z"/></g></g></svg>