<?xml version="1.0" encoding="UTF-8"?><svg id="Layer_2" xmlns="http://www.w3.org/2000/svg" viewBox="0 0 189.34 53.49"><defs><style>.cls-1{fill:#fff;}.cls-2{fill:#414042;}.cls-3{fill:#6d6e71;}</style></defs><g id="Layer_1-2"><g><path class="cls-1" d="M25.62,26.75c0-.14,0-.27,0-.4v.81c0-.13,0-.27,0-.4Z"/><path class="cls-1" d="M25.61,38.81c0-.13,0-.27,0-.4s0-.27,0-.4v.81Z"/><path class="cls-1" d="M118.14,11.66c-8.32,0-15.09,6.77-15.09,15.09,0,8.32,6.77,15.09,15.09,15.09,8.32,0,15.09-6.77,15.09-15.09,0-8.32-6.77-15.09-15.09-15.09Zm0,25.62c-5.81,0-10.53-4.72-10.53-10.53,0-5.81,4.72-10.53,10.53-10.53s10.53,4.72,10.53,10.53c0,5.81-4.72,10.53-10.53,10.53Z"/><path class="cls-1" d="M83.69,11.66c-2.12,0-4.15,.44-5.98,1.24v5.18c1.7-1.18,3.76-1.87,5.98-1.87,5.81,0,10.53,4.72,10.53,10.53,0,5.81-4.72,10.53-10.53,10.53-5.81,0-10.53-4.72-10.53-10.53,0-.13,0-.26,0-.39h-.01V0h-4.55V26.75c0,8.32,6.77,15.09,15.09,15.09,8.32,0,15.09-6.77,15.09-15.09,0-8.32-6.77-15.09-15.09-15.09Z"/><path class="cls-1" d="M174.25,11.66c-8.32,0-15.09,6.77-15.09,15.09,0,8.32,6.77,15.09,15.09,15.09,8.32,0,15.09-6.77,15.09-15.09,0-8.32-6.77-15.09-15.09-15.09Zm0,25.62c-5.81,0-10.53-4.72-10.53-10.53,0-5.81,4.72-10.53,10.53-10.53s10.53,4.72,10.53,10.53c0,5.81-4.72,10.53-10.53,10.53Z"/><rect class="cls-1" x="150.31" y="11.56" width="4.55" height="29.82"/><path class="cls-1" d="M59.77,15.96l-.05-.04v9.86c.03,.32,.05,.65,.05,.97,0,5.81-4.72,10.53-10.53,10.53-5.81,0-10.53-4.72-10.53-10.53,0-.29,.01-.58,.04-.87V15.92l-.04,.04v-4.48h-4.55v15.27c0,8.32,6.77,15.09,15.09,15.09,8.32,0,15.09-6.77,15.09-15.09V11.48h-4.55v4.48Z"/><g><circle class="cls-2" cx="141.26" cy="15.23" r="3.75"/><circle class="cls-3" cx="141.26" cy="26.65" r="3.75"/><circle class="cls-1" cx="141.26" cy="38.08" r="3.75"/></g><path class="cls-1" d="M15.09,11.66C6.77,11.66,0,18.43,0,26.75c0,.48,.02,.95,.07,1.42,.15,1.55,.53,3.03,1.11,4.41,.79,1.89,1.96,3.58,3.41,4.99,2.22,2.16,5.11,3.64,8.32,4.11,.71,.1,1.44,.16,2.18,.16,2.17,0,4.23-.46,6.09-1.29v-5.21c-1.72,1.23-3.83,1.95-6.09,1.95-.5,0-.99-.04-1.47-.1-3.04-.43-5.67-2.15-7.3-4.6-.97-1.45-1.59-3.16-1.73-4.99-.02-.28-.03-.56-.03-.84,0-1.24,.22-2.44,.62-3.55,1.46-4.07,5.35-6.98,9.92-6.98,5.55,0,10.11,4.32,10.5,9.77h.02v.36c0,.13,0,.27,0,.4s0,.27,0,.4v10.86c0,.13,0,.27,0,.4s0,.27,0,.4v.56h-.04c-.49,5.36-5.01,9.57-10.49,9.57-3.68,0-6.92-1.89-8.8-4.76H1.15c2.27,5.46,7.66,9.31,13.93,9.31,8.29,0,15.04-6.73,15.08-15.01h0v-11.74c0-8.32-6.77-15.09-15.09-15.09Z"/></g></g></svg>